<svg width="144" height="144" viewBox="0 0 144 144" fill="none" xmlns="http://www.w3.org/2000/svg">
<ellipse cx="72" cy="72" rx="72" ry="72" fill="black"/>
<g clip-path="url(#clip0_24045_84715)">
<path d="M100.325 89.2989C99.5791 86.5632 97.9859 84.1558 95.8239 82.3165C94.9895 81.6053 94.0791 80.9318 93.0845 80.3047C92.2416 79.77 91.1797 80.5572 91.424 81.5251L92.0225 83.8906C92.7811 86.8957 89.5528 89.3325 86.864 87.788L79.6361 83.638C74.8864 80.9107 69.0452 80.9107 64.2955 83.638L57.0676 87.788C54.3788 89.3325 51.1505 86.8915 51.9091 83.8906L52.5244 81.4579C52.7689 80.494 51.711 79.707 50.8681 80.2373C49.7639 80.9276 48.7609 81.6767 47.8506 82.4637C45.7223 84.3072 44.243 86.782 43.5518 89.5095L43.5265 89.6104C41.7691 96.5803 44.5001 103.908 50.3919 108.037L68.6406 120.819C70.6381 122.216 73.2975 122.216 75.2952 120.819L93.5439 108.037C99.5243 103.849 102.247 96.3614 100.325 89.3031V89.2989Z" fill="#808080"/>
<path d="M99.5661 73.9289C97.9731 60.6373 91.4449 47.3204 85.1315 37.1182L94.5131 27.7493C96.637 25.628 95.1326 22 92.1277 22H71.9234C70.3641 22 68.8005 22.686 67.7469 24.0539C60.6328 33.3008 46.704 53.6463 44.2722 73.9289C44.0531 75.7766 46.2235 76.9086 47.6143 75.6713C52.4694 71.353 60.0428 68.2637 71.9192 68.2637C83.7956 68.2637 91.3648 71.3572 96.2242 75.6713C97.6149 76.9086 99.7852 75.7724 99.5661 73.9289Z" fill="white"/>
</g>
<defs>
<clipPath id="clip0_24045_84715">
<rect width="58" height="100" fill="white" transform="translate(43 22)"/>
</clipPath>
</defs>
</svg>
