<svg width="144" height="144" viewBox="0 0 144 144" fill="none" xmlns="http://www.w3.org/2000/svg">
<ellipse cx="72" cy="72" rx="72" ry="72" fill="#233DBD"/>
<path d="M55.0469 44.0814L71.9899 33L106.002 55.0697L89.0843 66.1417L55.0469 44.0814Z" fill="white"/>
<path d="M55.3945 71.4496L72.3376 60.3682L105.998 82.102L89.3935 93.3713L55.3945 71.4496Z" fill="white" fill-opacity="0.4"/>
<path d="M38.0547 87.3275L55.0482 76.2461L88.9847 98.3576L71.9912 109.336L38.0547 87.3275Z" fill="white" fill-opacity="0.6"/>
<path d="M38.0039 55.0686L55.0456 44.0508V76.2501L38.0039 87.3533V55.0686Z" fill="white"/>
<path d="M89.3986 93.3719L106.005 82.1025V87.2692L89.0469 98.3297L89.3986 93.3719Z" fill="white" fill-opacity="0.5"/>
<path d="M55.0469 44.0814L71.9899 33L106.002 55.0697L89.0843 66.1417L55.0469 44.0814Z" fill="white"/>
<path d="M55.3945 71.4496L72.3376 60.3682L105.998 82.102L89.3935 93.3713L55.3945 71.4496Z" fill="white" fill-opacity="0.4"/>
<path d="M38.0547 87.3275L55.0482 76.2461L88.9847 98.3576L71.9912 109.336L38.0547 87.3275Z" fill="white" fill-opacity="0.6"/>
<path d="M38.0039 55.0686L55.0456 44.0508V76.2501L38.0039 87.3533V55.0686Z" fill="white"/>
<path d="M89.3986 93.3719L106.005 82.1025V87.2692L89.0469 98.3297L89.3986 93.3719Z" fill="white" fill-opacity="0.5"/>
</svg>
