<svg width="1000" height="1000" viewBox="0 0 1000 1000" fill="none" xmlns="http://www.w3.org/2000/svg">
<g clip-path="url(#clip0_9395_2)">
<circle cx="500" cy="500" r="500" fill="#A7F3DB"/>
<g clip-path="url(#clip1_9395_2)">
<path d="M488.847 714.34V285.132H516.305V714.34H488.847ZM561.677 426.804C560.337 413.279 554.589 402.773 544.432 395.284C534.275 387.795 520.49 384.051 503.078 384.051C491.247 384.051 481.257 385.727 473.109 389.081C464.961 392.322 458.71 396.848 454.358 402.661C450.116 408.473 447.996 415.068 447.996 422.445C447.772 428.592 449.055 433.957 451.847 438.54C454.748 443.123 458.71 447.091 463.733 450.444C468.756 453.685 474.56 456.536 481.146 458.994C487.731 461.342 494.762 463.354 502.241 465.03L533.047 472.407C548.003 475.761 561.732 480.231 574.234 485.82C586.735 491.409 597.561 498.283 606.714 506.442C615.866 514.602 622.954 524.214 627.976 535.279C633.111 546.345 635.734 559.031 635.845 573.338C635.734 594.351 630.376 612.57 619.773 627.995C609.281 643.308 594.101 655.212 574.234 663.706C554.478 672.089 530.647 676.281 502.743 676.281C475.062 676.281 450.953 672.033 430.416 663.539C409.99 655.044 394.029 642.469 382.533 625.815C371.148 609.05 365.176 588.315 364.618 563.614H434.769C435.55 575.126 438.843 584.739 444.647 592.451C450.563 600.052 458.432 605.808 468.254 609.72C478.188 613.521 489.405 615.421 501.906 615.421C514.184 615.421 524.843 613.632 533.884 610.055C543.037 606.479 550.124 601.505 555.147 595.134C560.17 588.763 562.681 581.442 562.681 573.17C562.681 565.458 560.393 558.975 555.817 553.722C551.352 548.469 544.767 543.998 536.061 540.309C527.466 536.621 516.918 533.267 504.417 530.249L467.081 520.861C438.173 513.819 415.348 502.809 398.605 487.832C381.863 472.855 373.547 452.679 373.659 427.307C373.547 406.517 379.072 388.354 390.234 372.818C401.507 357.281 416.966 345.154 436.611 336.436C456.255 327.717 478.578 323.358 503.58 323.358C529.029 323.358 551.24 327.717 570.215 336.436C589.302 345.154 604.146 357.281 614.75 372.818C625.354 388.354 630.823 406.349 631.158 426.804H561.677Z" fill="#059669"/>
</g>
</g>
<defs>
<clipPath id="clip0_9395_2">
<rect width="1000" height="1000" fill="white"/>
</clipPath>
<clipPath id="clip1_9395_2">
<rect width="272" height="430" fill="white" transform="translate(364 285)"/>
</clipPath>
</defs>
</svg>
