<svg xmlns="http://www.w3.org/2000/svg" xmlns:xlink="http://www.w3.org/1999/xlink" width="500" zoomAndPan="magnify" viewBox="0 0 375 374.999991" height="500" preserveAspectRatio="xMidYMid meet" version="1.0"><defs><g/></defs><g fill="#000000" fill-opacity="1"><g transform="translate(146.982417, 200.249987)"><g><path d="M 19.65625 -11.625 L 8.40625 -11.625 L 8.40625 0 L 2.546875 0 L 2.546875 -28.4375 L 21.0625 -28.4375 L 21.0625 -23.6875 L 8.40625 -23.6875 L 8.40625 -16.34375 L 19.65625 -16.34375 Z M 19.65625 -11.625 "/></g></g></g><g fill="#000000" fill-opacity="1"><g transform="translate(168.894339, 200.249987)"><g><path d="M 8.40625 -4.703125 L 20.84375 -4.703125 L 20.84375 0 L 2.546875 0 L 2.546875 -28.4375 L 8.40625 -28.4375 Z M 8.40625 -4.703125 "/></g></g></g><g fill="#000000" fill-opacity="1"><g transform="translate(190.552384, 200.249987)"><g><path d="M 8.765625 0 L 2.90625 0 L 2.90625 -28.4375 L 8.765625 -28.4375 Z M 8.765625 0 "/></g></g></g><g fill="#000000" fill-opacity="1"><g transform="translate(202.211407, 200.249987)"><g><path d="M 8.40625 -10.015625 L 8.40625 0 L 2.546875 0 L 2.546875 -28.4375 L 13.640625 -28.4375 C 15.773438 -28.4375 17.648438 -28.046875 19.265625 -27.265625 C 20.890625 -26.484375 22.132812 -25.375 23 -23.9375 C 23.875 -22.5 24.3125 -20.863281 24.3125 -19.03125 C 24.3125 -16.238281 23.359375 -14.035156 21.453125 -12.421875 C 19.546875 -10.816406 16.90625 -10.015625 13.53125 -10.015625 Z M 8.40625 -14.765625 L 13.640625 -14.765625 C 15.179688 -14.765625 16.359375 -15.128906 17.171875 -15.859375 C 17.992188 -16.585938 18.40625 -17.628906 18.40625 -18.984375 C 18.40625 -20.378906 17.992188 -21.503906 17.171875 -22.359375 C 16.347656 -23.222656 15.210938 -23.664062 13.765625 -23.6875 L 8.40625 -23.6875 Z M 8.40625 -14.765625 "/></g></g></g></svg>