<svg width="41" height="41" viewBox="0 0 41 41" fill="none" xmlns="http://www.w3.org/2000/svg">
<path fill-rule="evenodd" clip-rule="evenodd" d="M20.3914 0C31.6532 0 40.7827 9.12947 40.7827 20.3913C40.7827 31.6532 31.6532 40.7827 20.3914 40.7827C9.12949 40.7827 0 31.6532 0 20.3913C0 9.12947 9.12949 0 20.3914 0ZM40 20.3913C40 9.56177 31.2209 0.782621 20.3914 0.782621C19.5178 0.782621 18.6577 0.839741 17.8143 0.950451C18.3592 0.902811 18.9106 0.878491 19.4678 0.878491C29.816 0.878491 38.2049 9.26737 38.2049 19.6156C38.2049 29.9637 29.816 38.3526 19.4678 38.3526C9.67081 38.3526 1.62999 30.8337 0.801163 21.2516C1.25141 31.682 9.84995 40 20.3914 40C31.2209 40 40 31.2209 40 20.3913ZM37.4222 19.6156C37.4222 9.69957 29.3838 1.66112 19.4678 1.66112C18.6627 1.66112 17.8699 1.71412 17.0928 1.81681C17.5713 1.77655 18.0554 1.75601 18.5443 1.75601C27.9789 1.75601 35.6271 9.40427 35.6271 18.8388C35.6271 28.2734 27.9789 35.9216 18.5443 35.9216C9.62363 35.9216 2.30002 29.0839 1.52865 20.3637C1.92084 29.9327 9.80245 37.57 19.4678 37.57C29.3838 37.57 37.4222 29.5315 37.4222 19.6156ZM18.5443 2.53864C27.5466 2.53864 34.8445 9.83647 34.8445 18.8388C34.8445 27.8411 27.5466 35.1389 18.5443 35.1389C9.75055 35.1389 2.58317 28.1753 2.25582 19.4616C2.96257 27.3266 9.57186 33.4905 17.6209 33.4905C26.1412 33.4905 33.0484 26.5834 33.0484 18.063C33.0484 9.54257 26.1412 2.63548 17.6209 2.63548C17.1801 2.63548 16.7436 2.65397 16.3122 2.6902C17.042 2.59027 17.7871 2.53864 18.5443 2.53864ZM32.2657 18.063C32.2657 9.97487 25.709 3.41811 17.6209 3.41811C16.9375 3.41811 16.265 3.46491 15.6066 3.55549C15.9661 3.52735 16.3295 3.51302 16.6963 3.51302C24.3031 3.51302 30.4696 9.67947 30.4696 17.2863C30.4696 24.893 24.3031 31.0595 16.6963 31.0595C9.53662 31.0595 3.65291 25.5966 2.986 18.6117C3.27453 26.4456 9.71635 32.7079 17.6209 32.7079C25.709 32.7079 32.2657 26.1512 32.2657 18.063ZM16.6963 4.29564C23.8708 4.29564 29.6869 10.1118 29.6869 17.2863C29.6869 24.4608 23.8708 30.2769 16.6963 30.2769C9.66309 30.2769 3.93535 24.6877 3.71241 17.7087C4.31454 23.8389 9.48433 28.6285 15.7728 28.6285C22.466 28.6285 27.8918 23.2026 27.8918 16.5095C27.8918 9.81637 22.466 4.39053 15.7728 4.39053C15.4659 4.39053 15.1616 4.40194 14.8604 4.42436C15.4602 4.33952 16.0731 4.29564 16.6963 4.29564ZM27.1092 16.5095C27.1092 10.2486 22.0337 5.17316 15.7728 5.17316C15.2013 5.17316 14.6397 5.21545 14.0909 5.29707C14.3414 5.27913 14.5943 5.27 14.8494 5.27C20.6283 5.27 25.3131 9.95477 25.3131 15.7337C25.3131 21.5127 20.6283 26.1974 14.8494 26.1974C9.43412 26.1974 4.97972 22.0839 4.44039 16.8111C4.60028 22.9326 9.61276 27.8459 15.7728 27.8459C22.0337 27.8459 27.1092 22.7704 27.1092 16.5095ZM14.8494 6.05263C20.1961 6.05263 24.5304 10.387 24.5304 15.7337C24.5304 21.0805 20.1961 25.4148 14.8494 25.4148C9.57063 25.4148 5.27871 21.1901 5.17032 15.9374C5.65795 20.3413 9.3919 23.7664 13.9259 23.7664C18.7912 23.7664 22.7353 19.8223 22.7353 14.957C22.7353 10.0917 18.7912 6.14752 13.9259 6.14752C13.7398 6.14752 13.5551 6.15329 13.3719 6.16466C13.8536 6.09089 14.347 6.05263 14.8494 6.05263ZM21.9527 14.957C21.9527 10.5239 18.359 6.93015 13.9259 6.93015C13.4807 6.93015 13.044 6.96639 12.6185 7.03608C12.7453 7.0294 12.8729 7.02602 13.0014 7.02602C16.953 7.02602 20.1565 10.2295 20.1565 14.1812C20.1565 18.1329 16.953 21.3364 13.0014 21.3364C9.34738 21.3364 6.33315 18.5974 5.89967 15.0606C5.95517 19.446 9.52735 22.9838 13.9259 22.9838C18.359 22.9838 21.9527 19.3901 21.9527 14.957ZM13.0014 7.80864C16.5208 7.80864 19.3739 10.6617 19.3739 14.1812C19.3739 17.7007 16.5208 20.5537 13.0014 20.5537C9.48186 20.5537 6.62878 17.7007 6.62878 14.1812C6.62878 14.1728 6.6288 14.1643 6.62883 14.1559C6.99525 16.8379 9.29521 18.9044 12.0779 18.9044C15.1154 18.9044 17.5778 16.442 17.5778 13.4045C17.5778 10.3669 15.1154 7.90453 12.0779 7.90453C12.0092 7.90453 11.9408 7.90578 11.8727 7.90828C12.239 7.84281 12.6162 7.80864 13.0014 7.80864ZM16.7951 13.4045C16.7951 10.7992 14.6832 8.68715 12.0779 8.68715C9.47255 8.68715 7.36055 10.7992 7.36055 13.4045C7.36055 16.0097 9.47255 18.1217 12.0779 18.1217C14.6832 18.1217 16.7951 16.0097 16.7951 13.4045Z" fill="white"/>
</svg>
